<svg width="127" height="97" viewBox="0 0 127 97" fill="none" xmlns="http://www.w3.org/2000/svg">
<path d="M8.07955 6H7.02273C6.96023 5.69602 6.85085 5.42898 6.6946 5.19886C6.54119 4.96875 6.35369 4.77557 6.1321 4.61932C5.91335 4.46023 5.67045 4.34091 5.40341 4.26136C5.13636 4.18182 4.85795 4.14205 4.56818 4.14205C4.03977 4.14205 3.56108 4.27557 3.1321 4.54261C2.70597 4.80966 2.36648 5.20312 2.11364 5.72301C1.86364 6.2429 1.73864 6.88068 1.73864 7.63636C1.73864 8.39205 1.86364 9.02983 2.11364 9.54972C2.36648 10.0696 2.70597 10.4631 3.1321 10.7301C3.56108 10.9972 4.03977 11.1307 4.56818 11.1307C4.85795 11.1307 5.13636 11.0909 5.40341 11.0114C5.67045 10.9318 5.91335 10.8139 6.1321 10.6577C6.35369 10.4986 6.54119 10.304 6.6946 10.0739C6.85085 9.84091 6.96023 9.57386 7.02273 9.27273H8.07955C8 9.71875 7.85511 10.1179 7.64489 10.4702C7.43466 10.8224 7.1733 11.1222 6.8608 11.3693C6.5483 11.6136 6.19744 11.7997 5.80824 11.9276C5.42188 12.0554 5.00852 12.1193 4.56818 12.1193C3.82386 12.1193 3.16193 11.9375 2.58239 11.5739C2.00284 11.2102 1.54688 10.6932 1.21449 10.0227C0.882102 9.35227 0.715909 8.55682 0.715909 7.63636C0.715909 6.71591 0.882102 5.92045 1.21449 5.25C1.54688 4.57955 2.00284 4.0625 2.58239 3.69886C3.16193 3.33523 3.82386 3.15341 4.56818 3.15341C5.00852 3.15341 5.42188 3.21733 5.80824 3.34517C6.19744 3.47301 6.5483 3.66051 6.8608 3.90767C7.1733 4.15199 7.43466 4.45028 7.64489 4.80256C7.85511 5.15199 8 5.55114 8.07955 6ZM11.5771 12.1534C11.1623 12.1534 10.7859 12.0753 10.4478 11.919C10.1097 11.7599 9.84126 11.5312 9.6424 11.233C9.44354 10.9318 9.34411 10.5682 9.34411 10.142C9.34411 9.76705 9.41797 9.46307 9.5657 9.23011C9.71342 8.99432 9.91087 8.80966 10.158 8.67614C10.4052 8.54261 10.6779 8.44318 10.9762 8.37784C11.2773 8.30966 11.5799 8.25568 11.8839 8.21591C12.2816 8.16477 12.604 8.12642 12.8512 8.10085C13.1012 8.07244 13.283 8.02557 13.3967 7.96023C13.5131 7.89489 13.5714 7.78125 13.5714 7.61932V7.58523C13.5714 7.16477 13.4563 6.83807 13.2262 6.60511C12.9989 6.37216 12.6538 6.25568 12.1907 6.25568C11.7106 6.25568 11.3342 6.3608 11.0614 6.57102C10.7887 6.78125 10.5969 7.00568 10.4862 7.24432L9.53161 6.90341C9.70206 6.50568 9.92933 6.19602 10.2134 5.97443C10.5004 5.75 10.8129 5.59375 11.1509 5.50568C11.4918 5.41477 11.8271 5.36932 12.1566 5.36932C12.3668 5.36932 12.6083 5.39489 12.881 5.44602C13.1566 5.49432 13.4222 5.59517 13.6779 5.74858C13.9364 5.90199 14.1509 6.13352 14.3214 6.44318C14.4918 6.75284 14.5771 7.16761 14.5771 7.6875V12H13.5714V11.1136H13.5202C13.4521 11.2557 13.3384 11.4077 13.1793 11.5696C13.0202 11.7315 12.8086 11.8693 12.5444 11.983C12.2802 12.0966 11.9577 12.1534 11.5771 12.1534ZM11.7305 11.25C12.1282 11.25 12.4634 11.1719 12.7362 11.0156C13.0117 10.8594 13.2191 10.6577 13.3583 10.4105C13.5004 10.1634 13.5714 9.90341 13.5714 9.63068V8.71023C13.5288 8.76136 13.435 8.80824 13.2901 8.85085C13.1481 8.89062 12.9833 8.92614 12.7958 8.95739C12.6112 8.9858 12.4308 9.01136 12.2546 9.03409C12.0813 9.05398 11.9407 9.07102 11.8327 9.08523C11.5714 9.11932 11.3271 9.17472 11.0998 9.25142C10.8754 9.32528 10.6935 9.4375 10.5543 9.58807C10.418 9.7358 10.3498 9.9375 10.3498 10.1932C10.3498 10.5426 10.479 10.8068 10.7376 10.9858C10.9989 11.1619 11.3299 11.25 11.7305 11.25ZM17.4183 3.27273V12H16.4126V3.27273H17.4183ZM21.9194 12.1364C21.3285 12.1364 20.81 11.9957 20.364 11.7145C19.9208 11.4332 19.5742 11.0398 19.3242 10.5341C19.0771 10.0284 18.9535 9.4375 18.9535 8.76136C18.9535 8.07955 19.0771 7.48437 19.3242 6.97585C19.5742 6.46733 19.9208 6.07244 20.364 5.79119C20.81 5.50994 21.3285 5.36932 21.9194 5.36932C22.5103 5.36932 23.0273 5.50994 23.4705 5.79119C23.9165 6.07244 24.2631 6.46733 24.5103 6.97585C24.7603 7.48437 24.8853 8.07955 24.8853 8.76136C24.8853 9.4375 24.7603 10.0284 24.5103 10.5341C24.2631 11.0398 23.9165 11.4332 23.4705 11.7145C23.0273 11.9957 22.5103 12.1364 21.9194 12.1364ZM21.9194 11.233C22.3683 11.233 22.7376 11.1179 23.0273 10.8878C23.3171 10.6577 23.5316 10.3551 23.6708 9.98011C23.81 9.60511 23.8796 9.19886 23.8796 8.76136C23.8796 8.32386 23.81 7.91619 23.6708 7.53835C23.5316 7.16051 23.3171 6.85511 23.0273 6.62216C22.7376 6.3892 22.3683 6.27273 21.9194 6.27273C21.4705 6.27273 21.1012 6.3892 20.8114 6.62216C20.5217 6.85511 20.3072 7.16051 20.168 7.53835C20.0288 7.91619 19.9592 8.32386 19.9592 8.76136C19.9592 9.19886 20.0288 9.60511 20.168 9.98011C20.3072 10.3551 20.5217 10.6577 20.8114 10.8878C21.1012 11.1179 21.4705 11.233 21.9194 11.233ZM26.4205 12V5.45455H27.392V6.44318H27.4602C27.5795 6.11932 27.7955 5.85653 28.108 5.65483C28.4205 5.45312 28.7727 5.35227 29.1648 5.35227C29.2386 5.35227 29.331 5.35369 29.4418 5.35653C29.5526 5.35937 29.6364 5.36364 29.6932 5.36932V6.39205C29.6591 6.38352 29.581 6.37074 29.4588 6.35369C29.3395 6.33381 29.2131 6.32386 29.0795 6.32386C28.7614 6.32386 28.4773 6.39062 28.2273 6.52415C27.9801 6.65483 27.7841 6.83665 27.6392 7.0696C27.4972 7.29972 27.4261 7.5625 27.4261 7.85795V12H26.4205ZM30.8853 12V5.45455H31.891V12H30.8853ZM31.3967 4.36364C31.2006 4.36364 31.0316 4.29688 30.8896 4.16335C30.7504 4.02983 30.6808 3.86932 30.6808 3.68182C30.6808 3.49432 30.7504 3.33381 30.8896 3.20028C31.0316 3.06676 31.2006 3 31.3967 3C31.5927 3 31.7603 3.06676 31.8995 3.20028C32.0415 3.33381 32.1126 3.49432 32.1126 3.68182C32.1126 3.86932 32.0415 4.02983 31.8995 4.16335C31.7603 4.29688 31.5927 4.36364 31.3967 4.36364ZM36.4773 12.1364C35.8466 12.1364 35.3026 11.9972 34.8452 11.7188C34.3906 11.4375 34.0398 11.0455 33.7926 10.5426C33.5483 10.0369 33.4261 9.44886 33.4261 8.77841C33.4261 8.10795 33.5483 7.51705 33.7926 7.00568C34.0398 6.49148 34.3835 6.09091 34.8239 5.80398C35.267 5.5142 35.7841 5.36932 36.375 5.36932C36.7159 5.36932 37.0526 5.42614 37.3849 5.53977C37.7173 5.65341 38.0199 5.83807 38.2926 6.09375C38.5653 6.34659 38.7827 6.68182 38.9446 7.09943C39.1065 7.51705 39.1875 8.03125 39.1875 8.64205V9.06818H34.142V8.19886H38.1648C38.1648 7.82955 38.0909 7.5 37.9432 7.21023C37.7983 6.92045 37.5909 6.69176 37.321 6.52415C37.054 6.35653 36.7386 6.27273 36.375 6.27273C35.9744 6.27273 35.6278 6.37216 35.3352 6.57102C35.0455 6.76705 34.8224 7.02273 34.6662 7.33807C34.5099 7.65341 34.4318 7.99148 34.4318 8.35227V8.93182C34.4318 9.42614 34.517 9.84517 34.6875 10.1889C34.8608 10.5298 35.1009 10.7898 35.4077 10.9688C35.7145 11.1449 36.071 11.233 36.4773 11.233C36.7415 11.233 36.9801 11.196 37.1932 11.1222C37.4091 11.0455 37.5952 10.9318 37.7514 10.7812C37.9077 10.6278 38.0284 10.4375 38.1136 10.2102L39.0852 10.483C38.983 10.8125 38.8111 11.1023 38.5696 11.3523C38.3281 11.5994 38.0298 11.7926 37.6747 11.9318C37.3196 12.0682 36.9205 12.1364 36.4773 12.1364ZM45.3537 6.92045L44.4503 7.17614C44.3935 7.02557 44.3097 6.87926 44.1989 6.73722C44.0909 6.59233 43.9432 6.47301 43.7557 6.37926C43.5682 6.28551 43.3281 6.23864 43.0355 6.23864C42.6349 6.23864 42.3011 6.33097 42.0341 6.51562C41.7699 6.69744 41.6378 6.92898 41.6378 7.21023C41.6378 7.46023 41.7287 7.65767 41.9105 7.80256C42.0923 7.94744 42.3764 8.06818 42.7628 8.16477L43.7344 8.40341C44.3196 8.54545 44.7557 8.76278 45.0426 9.0554C45.3295 9.34517 45.473 9.71875 45.473 10.1761C45.473 10.5511 45.3651 10.8864 45.1491 11.1818C44.9361 11.4773 44.6378 11.7102 44.2543 11.8807C43.8707 12.0511 43.4247 12.1364 42.9162 12.1364C42.2486 12.1364 41.696 11.9915 41.2585 11.7017C40.821 11.4119 40.544 10.9886 40.4276 10.4318L41.3821 10.1932C41.473 10.5455 41.6449 10.8097 41.8977 10.9858C42.1534 11.1619 42.4872 11.25 42.8991 11.25C43.3679 11.25 43.7401 11.1506 44.0156 10.9517C44.294 10.75 44.4332 10.5085 44.4332 10.2273C44.4332 10 44.3537 9.80966 44.1946 9.65625C44.0355 9.5 43.7912 9.38352 43.4616 9.30682L42.3707 9.05114C41.7713 8.90909 41.331 8.68892 41.0497 8.39062C40.7713 8.08949 40.6321 7.71307 40.6321 7.26136C40.6321 6.89205 40.7358 6.56534 40.9432 6.28125C41.1534 5.99716 41.4389 5.77415 41.7997 5.61222C42.1634 5.45028 42.5753 5.36932 43.0355 5.36932C43.6832 5.36932 44.1918 5.51136 44.5611 5.79545C44.9332 6.07955 45.1974 6.45455 45.3537 6.92045ZM50.4982 12V3.27273H51.5039V6.49432H51.5891C51.663 6.38068 51.7653 6.2358 51.896 6.05966C52.0295 5.88068 52.2198 5.72159 52.467 5.58239C52.717 5.44034 53.055 5.36932 53.4812 5.36932C54.0323 5.36932 54.5181 5.5071 54.9386 5.78267C55.359 6.05824 55.6871 6.44886 55.9229 6.95455C56.1587 7.46023 56.2766 8.05682 56.2766 8.74432C56.2766 9.4375 56.1587 10.0384 55.9229 10.5469C55.6871 11.0526 55.3604 11.4446 54.9428 11.723C54.5252 11.9986 54.0437 12.1364 53.4982 12.1364C53.0778 12.1364 52.7411 12.0668 52.4883 11.9276C52.2354 11.7855 52.0408 11.625 51.9045 11.446C51.7681 11.2642 51.663 11.1136 51.5891 10.9943H51.4698V12H50.4982ZM51.4869 8.72727C51.4869 9.22159 51.5593 9.65767 51.7042 10.0355C51.8491 10.4105 52.0607 10.7045 52.3391 10.9176C52.6175 11.1278 52.9585 11.233 53.3619 11.233C53.7823 11.233 54.1332 11.1222 54.4144 10.9006C54.6985 10.6761 54.9116 10.375 55.0536 9.99716C55.1985 9.61648 55.271 9.19318 55.271 8.72727C55.271 8.26705 55.1999 7.85227 55.0579 7.48295C54.9187 7.1108 54.707 6.81676 54.4229 6.60085C54.1417 6.3821 53.788 6.27273 53.3619 6.27273C52.9528 6.27273 52.609 6.37642 52.3306 6.58381C52.0522 6.78835 51.842 7.07528 51.6999 7.4446C51.5579 7.81108 51.4869 8.23864 51.4869 8.72727ZM61.94 9.32386V5.45455H62.9457V12H61.94V10.892H61.8718C61.7184 11.2244 61.4798 11.5071 61.1559 11.7401C60.832 11.9702 60.4229 12.0852 59.9286 12.0852C59.5195 12.0852 59.1559 11.9957 58.8377 11.8168C58.5195 11.6349 58.2695 11.3622 58.0877 10.9986C57.9059 10.6321 57.815 10.1705 57.815 9.61364V5.45455H58.8207V9.54545C58.8207 10.0227 58.9542 10.4034 59.2212 10.6875C59.4911 10.9716 59.8349 11.1136 60.2525 11.1136C60.5025 11.1136 60.7567 11.0497 61.0153 10.9219C61.2766 10.794 61.4954 10.598 61.6715 10.3338C61.8505 10.0696 61.94 9.73295 61.94 9.32386ZM64.7876 12V5.45455H65.7592V6.44318H65.8274C65.9467 6.11932 66.1626 5.85653 66.4751 5.65483C66.7876 5.45312 67.1399 5.35227 67.532 5.35227C67.6058 5.35227 67.6982 5.35369 67.8089 5.35653C67.9197 5.35937 68.0036 5.36364 68.0604 5.36932V6.39205C68.0263 6.38352 67.9482 6.37074 67.826 6.35369C67.7067 6.33381 67.5803 6.32386 67.4467 6.32386C67.1286 6.32386 66.8445 6.39062 66.5945 6.52415C66.3473 6.65483 66.1513 6.83665 66.0064 7.0696C65.8643 7.29972 65.7933 7.5625 65.7933 7.85795V12H64.7876ZM70.2582 8.0625V12H69.2525V5.45455H70.2241V6.47727H70.3093C70.4627 6.14489 70.6957 5.87784 71.0082 5.67614C71.3207 5.47159 71.7241 5.36932 72.2184 5.36932C72.6616 5.36932 73.0494 5.46023 73.3817 5.64205C73.7141 5.82102 73.9727 6.09375 74.1573 6.46023C74.342 6.82386 74.4343 7.28409 74.4343 7.84091V12H73.4286V7.90909C73.4286 7.39489 73.2951 6.99432 73.0281 6.70739C72.761 6.41761 72.3945 6.27273 71.9286 6.27273C71.6076 6.27273 71.3207 6.34233 71.0678 6.48153C70.8178 6.62074 70.6204 6.82386 70.4755 7.09091C70.3306 7.35795 70.2582 7.68182 70.2582 8.0625ZM79.0163 12.1364C78.3857 12.1364 77.8416 11.9972 77.3842 11.7188C76.9297 11.4375 76.5788 11.0455 76.3317 10.5426C76.0874 10.0369 75.9652 9.44886 75.9652 8.77841C75.9652 8.10795 76.0874 7.51705 76.3317 7.00568C76.5788 6.49148 76.9226 6.09091 77.3629 5.80398C77.8061 5.5142 78.3232 5.36932 78.9141 5.36932C79.255 5.36932 79.5916 5.42614 79.924 5.53977C80.2564 5.65341 80.5589 5.83807 80.8317 6.09375C81.1044 6.34659 81.3217 6.68182 81.4837 7.09943C81.6456 7.51705 81.7266 8.03125 81.7266 8.64205V9.06818H76.6811V8.19886H80.7038C80.7038 7.82955 80.63 7.5 80.4822 7.21023C80.3374 6.92045 80.13 6.69176 79.8601 6.52415C79.593 6.35653 79.2777 6.27273 78.9141 6.27273C78.5135 6.27273 78.1669 6.37216 77.8743 6.57102C77.5845 6.76705 77.3615 7.02273 77.2053 7.33807C77.049 7.65341 76.9709 7.99148 76.9709 8.35227V8.93182C76.9709 9.42614 77.0561 9.84517 77.2266 10.1889C77.3999 10.5298 77.6399 10.7898 77.9467 10.9688C78.2536 11.1449 78.6101 11.233 79.0163 11.233C79.2805 11.233 79.5192 11.196 79.7322 11.1222C79.9482 11.0455 80.1342 10.9318 80.2905 10.7812C80.4467 10.6278 80.5675 10.4375 80.6527 10.2102L81.6243 10.483C81.522 10.8125 81.3501 11.1023 81.1087 11.3523C80.8672 11.5994 80.5689 11.7926 80.2138 11.9318C79.8587 12.0682 79.4595 12.1364 79.0163 12.1364ZM85.728 12.1364C85.1825 12.1364 84.701 11.9986 84.2834 11.723C83.8658 11.4446 83.5391 11.0526 83.3033 10.5469C83.0675 10.0384 82.9496 9.4375 82.9496 8.74432C82.9496 8.05682 83.0675 7.46023 83.3033 6.95455C83.5391 6.44886 83.8672 6.05824 84.2876 5.78267C84.7081 5.5071 85.1939 5.36932 85.745 5.36932C86.1712 5.36932 86.5078 5.44034 86.755 5.58239C87.005 5.72159 87.1953 5.88068 87.326 6.05966C87.4595 6.2358 87.5632 6.38068 87.6371 6.49432H87.7223V3.27273H88.728V12H87.7564V10.9943H87.6371C87.5632 11.1136 87.4581 11.2642 87.3217 11.446C87.1854 11.625 86.9908 11.7855 86.7379 11.9276C86.4851 12.0668 86.1484 12.1364 85.728 12.1364ZM85.8643 11.233C86.2678 11.233 86.6087 11.1278 86.8871 10.9176C87.1655 10.7045 87.3771 10.4105 87.522 10.0355C87.6669 9.65767 87.7393 9.22159 87.7393 8.72727C87.7393 8.23864 87.6683 7.81108 87.5263 7.4446C87.3842 7.07528 87.174 6.78835 86.8956 6.58381C86.6172 6.37642 86.2734 6.27273 85.8643 6.27273C85.4382 6.27273 85.0831 6.3821 84.799 6.60085C84.5178 6.81676 84.3061 7.1108 84.1641 7.48295C84.0249 7.85227 83.9553 8.26705 83.9553 8.72727C83.9553 9.19318 84.0263 9.61648 84.1683 9.99716C84.3132 10.375 84.5263 10.6761 84.8075 10.9006C85.0916 11.1222 85.4439 11.233 85.8643 11.233Z" fill="white"/>
<path d="M1.05682 68V59.2727H6.32386V60.2102H2.11364V63.1591H6.05114V64.0966H2.11364V67.0625H6.39205V68H1.05682ZM12.7287 62.9205L11.8253 63.1761C11.7685 63.0256 11.6847 62.8793 11.5739 62.7372C11.4659 62.5923 11.3182 62.473 11.1307 62.3793C10.9432 62.2855 10.7031 62.2386 10.4105 62.2386C10.0099 62.2386 9.67614 62.331 9.40909 62.5156C9.14489 62.6974 9.01278 62.929 9.01278 63.2102C9.01278 63.4602 9.10369 63.6577 9.28551 63.8026C9.46733 63.9474 9.75142 64.0682 10.1378 64.1648L11.1094 64.4034C11.6946 64.5455 12.1307 64.7628 12.4176 65.0554C12.7045 65.3452 12.848 65.7187 12.848 66.1761C12.848 66.5511 12.7401 66.8864 12.5241 67.1818C12.3111 67.4773 12.0128 67.7102 11.6293 67.8807C11.2457 68.0511 10.7997 68.1364 10.2912 68.1364C9.62358 68.1364 9.07102 67.9915 8.63352 67.7017C8.19602 67.4119 7.91903 66.9886 7.80256 66.4318L8.7571 66.1932C8.84801 66.5455 9.01989 66.8097 9.27273 66.9858C9.52841 67.1619 9.86222 67.25 10.2741 67.25C10.7429 67.25 11.1151 67.1506 11.3906 66.9517C11.669 66.75 11.8082 66.5085 11.8082 66.2273C11.8082 66 11.7287 65.8097 11.5696 65.6562C11.4105 65.5 11.1662 65.3835 10.8366 65.3068L9.74574 65.0511C9.14631 64.9091 8.70597 64.6889 8.42472 64.3906C8.14631 64.0895 8.0071 63.7131 8.0071 63.2614C8.0071 62.892 8.1108 62.5653 8.31818 62.2812C8.52841 61.9972 8.81392 61.7741 9.17472 61.6122C9.53835 61.4503 9.95028 61.3693 10.4105 61.3693C11.0582 61.3693 11.5668 61.5114 11.9361 61.7955C12.3082 62.0795 12.5724 62.4545 12.7287 62.9205ZM17.2085 61.4545V62.3068H13.8164V61.4545H17.2085ZM14.805 59.8864H15.8107V66.125C15.8107 66.4091 15.8519 66.6222 15.9343 66.7642C16.0195 66.9034 16.1275 66.9972 16.2582 67.0455C16.3917 67.0909 16.5323 67.1136 16.68 67.1136C16.7908 67.1136 16.8817 67.108 16.9528 67.0966C17.0238 67.0824 17.0806 67.071 17.1232 67.0625L17.3278 67.9659C17.2596 67.9915 17.1644 68.017 17.0423 68.0426C16.9201 68.071 16.7653 68.0852 16.5778 68.0852C16.2937 68.0852 16.0153 68.0241 15.7425 67.902C15.4727 67.7798 15.2482 67.5938 15.0692 67.3438C14.8931 67.0938 14.805 66.7784 14.805 66.3977V59.8864ZM18.7212 68V61.4545H19.7269V68H18.7212ZM19.2326 60.3636C19.0366 60.3636 18.8675 60.2969 18.7255 60.1634C18.5863 60.0298 18.5167 59.8693 18.5167 59.6818C18.5167 59.4943 18.5863 59.3338 18.7255 59.2003C18.8675 59.0668 19.0366 59 19.2326 59C19.4286 59 19.5962 59.0668 19.7354 59.2003C19.8775 59.3338 19.9485 59.4943 19.9485 59.6818C19.9485 59.8693 19.8775 60.0298 19.7354 60.1634C19.5962 60.2969 19.4286 60.3636 19.2326 60.3636ZM21.5689 68V61.4545H22.5405V62.4773H22.6257C22.7621 62.1278 22.9822 61.8565 23.2862 61.6634C23.5902 61.4673 23.9553 61.3693 24.3814 61.3693C24.8132 61.3693 25.1726 61.4673 25.4595 61.6634C25.7493 61.8565 25.9751 62.1278 26.1371 62.4773H26.2053C26.3729 62.1392 26.6243 61.8707 26.9595 61.6719C27.2947 61.4702 27.6967 61.3693 28.1655 61.3693C28.7507 61.3693 29.2294 61.5526 29.6016 61.919C29.9737 62.2827 30.1598 62.8494 30.1598 63.6193V68H29.1541V63.6193C29.1541 63.1364 29.022 62.7912 28.7578 62.5838C28.4936 62.3764 28.1825 62.2727 27.8246 62.2727C27.3643 62.2727 27.0078 62.4119 26.755 62.6903C26.5021 62.9659 26.3757 63.3153 26.3757 63.7386V68H25.353V63.517C25.353 63.1449 25.2322 62.8452 24.9908 62.6179C24.7493 62.3878 24.4382 62.2727 24.0575 62.2727C23.7962 62.2727 23.5518 62.3423 23.3246 62.4815C23.1001 62.6207 22.9183 62.8139 22.7791 63.0611C22.6428 63.3054 22.5746 63.5881 22.5746 63.9091V68H21.5689ZM33.9247 68.1534C33.5099 68.1534 33.1335 68.0753 32.7955 67.919C32.4574 67.7599 32.1889 67.5312 31.9901 67.233C31.7912 66.9318 31.6918 66.5682 31.6918 66.142C31.6918 65.767 31.7656 65.4631 31.9134 65.2301C32.0611 64.9943 32.2585 64.8097 32.5057 64.6761C32.7528 64.5426 33.0256 64.4432 33.3239 64.3778C33.625 64.3097 33.9276 64.2557 34.2315 64.2159C34.6293 64.1648 34.9517 64.1264 35.1989 64.1009C35.4489 64.0724 35.6307 64.0256 35.7443 63.9602C35.8608 63.8949 35.919 63.7812 35.919 63.6193V63.5852C35.919 63.1648 35.804 62.8381 35.5739 62.6051C35.3466 62.3722 35.0014 62.2557 34.5384 62.2557C34.0582 62.2557 33.6818 62.3608 33.4091 62.571C33.1364 62.7812 32.9446 63.0057 32.8338 63.2443L31.8793 62.9034C32.0497 62.5057 32.277 62.196 32.5611 61.9744C32.848 61.75 33.1605 61.5937 33.4986 61.5057C33.8395 61.4148 34.1747 61.3693 34.5043 61.3693C34.7145 61.3693 34.956 61.3949 35.2287 61.446C35.5043 61.4943 35.7699 61.5952 36.0256 61.7486C36.2841 61.902 36.4986 62.1335 36.669 62.4432C36.8395 62.7528 36.9247 63.1676 36.9247 63.6875V68H35.919V67.1136H35.8679C35.7997 67.2557 35.6861 67.4077 35.527 67.5696C35.3679 67.7315 35.1563 67.8693 34.892 67.983C34.6278 68.0966 34.3054 68.1534 33.9247 68.1534ZM34.0781 67.25C34.4759 67.25 34.8111 67.1719 35.0838 67.0156C35.3594 66.8594 35.5668 66.6577 35.706 66.4105C35.848 66.1634 35.919 65.9034 35.919 65.6307V64.7102C35.8764 64.7614 35.7827 64.8082 35.6378 64.8509C35.4957 64.8906 35.331 64.9261 35.1435 64.9574C34.9588 64.9858 34.7784 65.0114 34.6023 65.0341C34.429 65.054 34.2884 65.071 34.1804 65.0852C33.919 65.1193 33.6747 65.1747 33.4474 65.2514C33.223 65.3253 33.0412 65.4375 32.902 65.5881C32.7656 65.7358 32.6974 65.9375 32.6974 66.1932C32.6974 66.5426 32.8267 66.8068 33.0852 66.9858C33.3466 67.1619 33.6776 67.25 34.0781 67.25ZM41.6069 61.4545V62.3068H38.2148V61.4545H41.6069ZM39.2035 59.8864H40.2092V66.125C40.2092 66.4091 40.2504 66.6222 40.3327 66.7642C40.418 66.9034 40.5259 66.9972 40.6566 67.0455C40.7901 67.0909 40.9308 67.1136 41.0785 67.1136C41.1893 67.1136 41.2802 67.108 41.3512 67.0966C41.4222 67.0824 41.479 67.071 41.5217 67.0625L41.7262 67.9659C41.658 67.9915 41.5629 68.017 41.4407 68.0426C41.3185 68.071 41.1637 68.0852 40.9762 68.0852C40.6921 68.0852 40.4137 68.0241 40.141 67.902C39.8711 67.7798 39.6467 67.5938 39.4677 67.3438C39.2915 67.0938 39.2035 66.7784 39.2035 66.3977V59.8864ZM45.7937 68.1364C45.163 68.1364 44.619 67.9972 44.1616 67.7188C43.707 67.4375 43.3562 67.0455 43.109 66.5426C42.8647 66.0369 42.7425 65.4489 42.7425 64.7784C42.7425 64.108 42.8647 63.517 43.109 63.0057C43.3562 62.4915 43.6999 62.0909 44.1403 61.804C44.5835 61.5142 45.1005 61.3693 45.6914 61.3693C46.0323 61.3693 46.369 61.4261 46.7013 61.5398C47.0337 61.6534 47.3363 61.8381 47.609 62.0938C47.8817 62.3466 48.0991 62.6818 48.261 63.0994C48.4229 63.517 48.5039 64.0312 48.5039 64.642V65.0682H43.4585V64.1989H47.4812C47.4812 63.8295 47.4073 63.5 47.2596 63.2102C47.1147 62.9205 46.9073 62.6918 46.6374 62.5241C46.3704 62.3565 46.055 62.2727 45.6914 62.2727C45.2908 62.2727 44.9442 62.3722 44.6516 62.571C44.3619 62.767 44.1388 63.0227 43.9826 63.3381C43.8263 63.6534 43.7482 63.9915 43.7482 64.3523V64.9318C43.7482 65.4261 43.8335 65.8452 44.0039 66.1889C44.1772 66.5298 44.4173 66.7898 44.7241 66.9688C45.0309 67.1449 45.3874 67.233 45.7937 67.233C46.0579 67.233 46.2965 67.196 46.5096 67.1222C46.7255 67.0455 46.9116 66.9318 47.0678 66.7812C47.2241 66.6278 47.3448 66.4375 47.43 66.2102L48.4016 66.483C48.2994 66.8125 48.1275 67.1023 47.886 67.3523C47.6445 67.5994 47.3462 67.7926 46.9911 67.9318C46.636 68.0682 46.2369 68.1364 45.7937 68.1364ZM52.5053 68.1364C51.9599 68.1364 51.4783 67.9986 51.0607 67.723C50.6431 67.4446 50.3164 67.0526 50.0806 66.5469C49.8448 66.0384 49.7269 65.4375 49.7269 64.7443C49.7269 64.0568 49.8448 63.4602 50.0806 62.9545C50.3164 62.4489 50.6445 62.0582 51.065 61.7827C51.4854 61.5071 51.9712 61.3693 52.5224 61.3693C52.9485 61.3693 53.2852 61.4403 53.5323 61.5824C53.7823 61.7216 53.9727 61.8807 54.1033 62.0597C54.2369 62.2358 54.3406 62.3807 54.4144 62.4943H54.4996V59.2727H55.5053V68H54.5337V66.9943H54.4144C54.3406 67.1136 54.2354 67.2642 54.0991 67.446C53.9627 67.625 53.7681 67.7855 53.5153 67.9276C53.2624 68.0668 52.9258 68.1364 52.5053 68.1364ZM52.6417 67.233C53.0451 67.233 53.386 67.1278 53.6644 66.9176C53.9428 66.7045 54.1545 66.4105 54.2994 66.0355C54.4442 65.6577 54.5167 65.2216 54.5167 64.7273C54.5167 64.2386 54.4457 63.8111 54.3036 63.4446C54.1616 63.0753 53.9513 62.7884 53.6729 62.5838C53.3945 62.3764 53.0508 62.2727 52.6417 62.2727C52.2156 62.2727 51.8604 62.3821 51.5763 62.6009C51.2951 62.8168 51.0835 63.1108 50.9414 63.483C50.8022 63.8523 50.7326 64.267 50.7326 64.7273C50.7326 65.1932 50.8036 65.6165 50.9457 65.9972C51.0906 66.375 51.3036 66.6761 51.5849 66.9006C51.869 67.1222 52.2212 67.233 52.6417 67.233ZM63.7085 61.4545V62.3068H60.3164V61.4545H63.7085ZM61.305 59.8864H62.3107V66.125C62.3107 66.4091 62.3519 66.6222 62.4343 66.7642C62.5195 66.9034 62.6275 66.9972 62.7582 67.0455C62.8917 67.0909 63.0323 67.1136 63.18 67.1136C63.2908 67.1136 63.3817 67.108 63.4528 67.0966C63.5238 67.0824 63.5806 67.071 63.6232 67.0625L63.8278 67.9659C63.7596 67.9915 63.6644 68.017 63.5423 68.0426C63.4201 68.071 63.2653 68.0852 63.0778 68.0852C62.7937 68.0852 62.5153 68.0241 62.2425 67.902C61.9727 67.7798 61.7482 67.5938 61.5692 67.3438C61.3931 67.0938 61.305 66.7784 61.305 66.3977V59.8864ZM65.2212 68V61.4545H66.2269V68H65.2212ZM65.7326 60.3636C65.5366 60.3636 65.3675 60.2969 65.2255 60.1634C65.0863 60.0298 65.0167 59.8693 65.0167 59.6818C65.0167 59.4943 65.0863 59.3338 65.2255 59.2003C65.3675 59.0668 65.5366 59 65.7326 59C65.9286 59 66.0962 59.0668 66.2354 59.2003C66.3775 59.3338 66.4485 59.4943 66.4485 59.6818C66.4485 59.8693 66.3775 60.0298 66.2354 60.1634C66.0962 60.2969 65.9286 60.3636 65.7326 60.3636ZM68.0689 68V61.4545H69.0405V62.4773H69.1257C69.2621 62.1278 69.4822 61.8565 69.7862 61.6634C70.0902 61.4673 70.4553 61.3693 70.8814 61.3693C71.3132 61.3693 71.6726 61.4673 71.9595 61.6634C72.2493 61.8565 72.4751 62.1278 72.6371 62.4773H72.7053C72.8729 62.1392 73.1243 61.8707 73.4595 61.6719C73.7947 61.4702 74.1967 61.3693 74.6655 61.3693C75.2507 61.3693 75.7294 61.5526 76.1016 61.919C76.4737 62.2827 76.6598 62.8494 76.6598 63.6193V68H75.6541V63.6193C75.6541 63.1364 75.522 62.7912 75.2578 62.5838C74.9936 62.3764 74.6825 62.2727 74.3246 62.2727C73.8643 62.2727 73.5078 62.4119 73.255 62.6903C73.0021 62.9659 72.8757 63.3153 72.8757 63.7386V68H71.853V63.517C71.853 63.1449 71.7322 62.8452 71.4908 62.6179C71.2493 62.3878 70.9382 62.2727 70.5575 62.2727C70.2962 62.2727 70.0518 62.3423 69.8246 62.4815C69.6001 62.6207 69.4183 62.8139 69.2791 63.0611C69.1428 63.3054 69.0746 63.5881 69.0746 63.9091V68H68.0689ZM81.2429 68.1364C80.6122 68.1364 80.0682 67.9972 79.6108 67.7188C79.1562 67.4375 78.8054 67.0455 78.5582 66.5426C78.3139 66.0369 78.1918 65.4489 78.1918 64.7784C78.1918 64.108 78.3139 63.517 78.5582 63.0057C78.8054 62.4915 79.1491 62.0909 79.5895 61.804C80.0327 61.5142 80.5497 61.3693 81.1406 61.3693C81.4815 61.3693 81.8182 61.4261 82.1506 61.5398C82.483 61.6534 82.7855 61.8381 83.0582 62.0938C83.331 62.3466 83.5483 62.6818 83.7102 63.0994C83.8722 63.517 83.9531 64.0312 83.9531 64.642V65.0682H78.9077V64.1989H82.9304C82.9304 63.8295 82.8565 63.5 82.7088 63.2102C82.5639 62.9205 82.3565 62.6918 82.0866 62.5241C81.8196 62.3565 81.5043 62.2727 81.1406 62.2727C80.7401 62.2727 80.3935 62.3722 80.1009 62.571C79.8111 62.767 79.5881 63.0227 79.4318 63.3381C79.2756 63.6534 79.1974 63.9915 79.1974 64.3523V64.9318C79.1974 65.4261 79.2827 65.8452 79.4531 66.1889C79.6264 66.5298 79.8665 66.7898 80.1733 66.9688C80.4801 67.1449 80.8366 67.233 81.2429 67.233C81.5071 67.233 81.7457 67.196 81.9588 67.1222C82.1747 67.0455 82.3608 66.9318 82.517 66.7812C82.6733 66.6278 82.794 66.4375 82.8793 66.2102L83.8509 66.483C83.7486 66.8125 83.5767 67.1023 83.3352 67.3523C83.0938 67.5994 82.7955 67.7926 82.4403 67.9318C82.0852 68.0682 81.6861 68.1364 81.2429 68.1364Z" fill="white"/>
<path d="M5.19318 35.1591C4.39015 35.1591 3.67424 35.0114 3.04545 34.7159C2.42045 34.4205 1.92424 34.0133 1.55682 33.4943C1.18939 32.9754 0.998106 32.3807 0.982955 31.7102H3.36932C3.39583 32.161 3.58523 32.5265 3.9375 32.8068C4.28977 33.0871 4.70833 33.2273 5.19318 33.2273C5.57955 33.2273 5.92045 33.142 6.21591 32.9716C6.51515 32.7973 6.74811 32.5568 6.91477 32.25C7.08523 31.9394 7.17045 31.5833 7.17045 31.1818C7.17045 30.7727 7.08333 30.4129 6.90909 30.1023C6.73864 29.7917 6.50189 29.5492 6.19886 29.375C5.89583 29.2008 5.54924 29.1117 5.15909 29.108C4.81818 29.108 4.48674 29.178 4.16477 29.3182C3.84659 29.4583 3.59848 29.6496 3.42045 29.892L1.23295 29.5L1.78409 23.3636H8.89773V25.375H3.8125L3.51136 28.2898H3.57955C3.78409 28.0019 4.0928 27.7633 4.50568 27.5739C4.91856 27.3845 5.38068 27.2898 5.89205 27.2898C6.5928 27.2898 7.2178 27.4545 7.76705 27.7841C8.31629 28.1136 8.75 28.5663 9.06818 29.142C9.38636 29.714 9.54356 30.3731 9.53977 31.1193C9.54356 31.9034 9.36174 32.6004 8.99432 33.2102C8.63068 33.8163 8.12121 34.2936 7.46591 34.642C6.81439 34.9867 6.05682 35.1591 5.19318 35.1591ZM11.0795 32.9545V31.017L15.9375 23.3636H17.608V26.0455H16.6193L13.5568 30.892V30.983H20.4602V32.9545H11.0795ZM16.6648 35V32.3636L16.7102 31.5057V23.3636H19.017V35H16.6648ZM26.6619 35.2557C25.6847 35.2519 24.8438 35.0114 24.1392 34.5341C23.4384 34.0568 22.8987 33.3655 22.5199 32.4602C22.1449 31.5549 21.9593 30.4659 21.9631 29.1932C21.9631 27.9242 22.1506 26.8428 22.5256 25.9489C22.9044 25.0549 23.4441 24.375 24.1449 23.9091C24.8494 23.4394 25.6884 23.2045 26.6619 23.2045C27.6354 23.2045 28.4725 23.4394 29.1733 23.9091C29.8778 24.3788 30.4195 25.0606 30.7983 25.9545C31.1771 26.8447 31.3646 27.9242 31.3608 29.1932C31.3608 30.4697 31.1714 31.5606 30.7926 32.4659C30.4176 33.3712 29.8797 34.0625 29.179 34.5398C28.4782 35.017 27.6392 35.2557 26.6619 35.2557ZM26.6619 33.2159C27.3286 33.2159 27.8608 32.8807 28.2585 32.2102C28.6563 31.5398 28.8532 30.5341 28.8494 29.1932C28.8494 28.3106 28.7585 27.5758 28.5767 26.9886C28.3987 26.4015 28.1449 25.9602 27.8153 25.6648C27.4896 25.3693 27.1051 25.2216 26.6619 25.2216C25.9991 25.2216 25.4688 25.553 25.071 26.2159C24.6733 26.8788 24.4725 27.8712 24.4688 29.1932C24.4688 30.0871 24.5578 30.8333 24.7358 31.4318C24.9176 32.0265 25.1733 32.4735 25.5028 32.7727C25.8324 33.0682 26.2188 33.2159 26.6619 33.2159ZM40.7841 35.1705C39.8902 35.1705 39.1212 34.9811 38.4773 34.6023C37.8371 34.2197 37.3447 33.6894 37 33.0114C36.6591 32.3333 36.4886 31.553 36.4886 30.6705C36.4886 29.7765 36.661 28.9924 37.0057 28.3182C37.3542 27.6402 37.8485 27.1117 38.4886 26.733C39.1288 26.3504 39.8902 26.1591 40.7727 26.1591C41.5341 26.1591 42.2008 26.2973 42.7727 26.5739C43.3447 26.8504 43.7973 27.2386 44.1307 27.7386C44.464 28.2386 44.6477 28.8258 44.6818 29.5H42.3977C42.3333 29.0644 42.1629 28.714 41.8864 28.4489C41.6136 28.1799 41.2557 28.0455 40.8125 28.0455C40.4375 28.0455 40.1098 28.1477 39.8295 28.3523C39.553 28.553 39.3371 28.8466 39.1818 29.233C39.0265 29.6193 38.9489 30.0871 38.9489 30.6364C38.9489 31.1932 39.0246 31.6667 39.1761 32.0568C39.3314 32.447 39.5492 32.7443 39.8295 32.9489C40.1098 33.1534 40.4375 33.2557 40.8125 33.2557C41.089 33.2557 41.3371 33.1989 41.5568 33.0852C41.7803 32.9716 41.964 32.8068 42.108 32.5909C42.2557 32.3712 42.3523 32.108 42.3977 31.8011H44.6818C44.6439 32.4678 44.4621 33.0549 44.1364 33.5625C43.8144 34.0663 43.3693 34.4602 42.8011 34.7443C42.233 35.0284 41.5606 35.1705 40.7841 35.1705ZM48.7202 35.1648C48.1634 35.1648 47.6671 35.0682 47.2315 34.875C46.7959 34.678 46.4512 34.3883 46.1974 34.0057C45.9474 33.6193 45.8224 33.1383 45.8224 32.5625C45.8224 32.0777 45.9115 31.6705 46.0895 31.3409C46.2675 31.0114 46.5099 30.7462 46.8168 30.5455C47.1236 30.3447 47.4721 30.1932 47.8622 30.0909C48.2562 29.9886 48.669 29.9167 49.1009 29.875C49.6084 29.822 50.0175 29.7727 50.3281 29.7273C50.6387 29.678 50.8641 29.6061 51.0043 29.5114C51.1444 29.4167 51.2145 29.2765 51.2145 29.0909V29.0568C51.2145 28.697 51.1009 28.4186 50.8736 28.2216C50.6501 28.0246 50.3319 27.9261 49.919 27.9261C49.4834 27.9261 49.1368 28.0227 48.8793 28.2159C48.6217 28.4053 48.4512 28.6439 48.3679 28.9318L46.1293 28.75C46.2429 28.2197 46.4664 27.7614 46.7997 27.375C47.133 26.9848 47.563 26.6856 48.0895 26.4773C48.6198 26.2652 49.2334 26.1591 49.9304 26.1591C50.4152 26.1591 50.8793 26.2159 51.3224 26.3295C51.7694 26.4432 52.1652 26.6193 52.5099 26.858C52.8584 27.0966 53.133 27.4034 53.3338 27.7784C53.5346 28.1496 53.6349 28.5947 53.6349 29.1136V35H51.3395V33.7898H51.2713C51.1312 34.0625 50.9437 34.303 50.7088 34.5114C50.474 34.7159 50.1918 34.8769 49.8622 34.9943C49.5327 35.108 49.152 35.1648 48.7202 35.1648ZM49.4134 33.4943C49.7694 33.4943 50.0838 33.4242 50.3565 33.2841C50.6293 33.1402 50.8433 32.947 50.9986 32.7045C51.1539 32.4621 51.2315 32.1875 51.2315 31.8807V30.9545C51.1558 31.0038 51.0516 31.0492 50.919 31.0909C50.7902 31.1288 50.6444 31.1648 50.4815 31.1989C50.3187 31.2292 50.1558 31.2576 49.9929 31.2841C49.83 31.3068 49.6823 31.3277 49.5497 31.3466C49.2656 31.3883 49.0175 31.4545 48.8054 31.5455C48.5933 31.6364 48.4285 31.7595 48.3111 31.9148C48.1937 32.0663 48.1349 32.2557 48.1349 32.483C48.1349 32.8125 48.2543 33.0644 48.4929 33.2386C48.7353 33.4091 49.0421 33.4943 49.4134 33.4943ZM57.9332 23.3636V35H55.5128V23.3636H57.9332Z" fill="white"/>
<path d="M6.00568 81.3636V93H3.54545V83.6989H3.47727L0.8125 85.3693V83.1875L3.69318 81.3636H6.00568ZM14.9176 87.9545V93H12.4972V81.3636H14.8494V85.8125H14.9517C15.1487 85.2973 15.4669 84.8939 15.9062 84.6023C16.3456 84.3068 16.8968 84.1591 17.5597 84.1591C18.1657 84.1591 18.6941 84.2917 19.1449 84.5568C19.5994 84.8182 19.9517 85.1951 20.2017 85.6875C20.4555 86.1761 20.5805 86.7614 20.5767 87.4432V93H18.1562V87.875C18.16 87.3371 18.0237 86.9186 17.7472 86.6193C17.4744 86.3201 17.0919 86.1705 16.5994 86.1705C16.2699 86.1705 15.9782 86.2405 15.7244 86.3807C15.4744 86.5208 15.2775 86.7254 15.1335 86.9943C14.9934 87.2595 14.9214 87.5795 14.9176 87.9545ZM22.4815 93V84.2727H24.8281V85.7955H24.919C25.0781 85.2538 25.3452 84.8447 25.7202 84.5682C26.0952 84.2879 26.527 84.1477 27.0156 84.1477C27.1368 84.1477 27.2675 84.1553 27.4077 84.1705C27.5478 84.1856 27.6709 84.2064 27.777 84.233V86.3807C27.6634 86.3466 27.5062 86.3163 27.3054 86.2898C27.1046 86.2633 26.9209 86.25 26.7543 86.25C26.3982 86.25 26.08 86.3277 25.7997 86.483C25.5232 86.6345 25.3035 86.8466 25.1406 87.1193C24.9815 87.392 24.902 87.7064 24.902 88.0625V93H22.4815ZM32.5327 90.9545V89.017L37.3906 81.3636H39.0611V84.0455H38.0724L35.0099 88.892V88.983H41.9134V90.9545H32.5327ZM38.1179 93V90.3636L38.1634 89.5057V81.3636H40.4702V93H38.1179ZM47.2784 93V84.2727H49.5852V85.8125H49.6875C49.8693 85.3011 50.1723 84.8977 50.5966 84.6023C51.0208 84.3068 51.5284 84.1591 52.1193 84.1591C52.7178 84.1591 53.2273 84.3087 53.6477 84.608C54.0682 84.9034 54.3485 85.3049 54.4886 85.8125H54.5795C54.7576 85.3125 55.0795 84.9129 55.5455 84.6136C56.0152 84.3106 56.5701 84.1591 57.2102 84.1591C58.0246 84.1591 58.6856 84.4186 59.1932 84.9375C59.7045 85.4527 59.9602 86.1837 59.9602 87.1307V93H57.5455V87.608C57.5455 87.1231 57.4167 86.7595 57.1591 86.517C56.9015 86.2746 56.5795 86.1534 56.1932 86.1534C55.7538 86.1534 55.411 86.2936 55.1648 86.5739C54.9186 86.8504 54.7955 87.2159 54.7955 87.6705V93H52.4489V87.5568C52.4489 87.1288 52.3258 86.7879 52.0795 86.5341C51.8371 86.2803 51.517 86.1534 51.1193 86.1534C50.8504 86.1534 50.608 86.2216 50.392 86.358C50.1799 86.4905 50.0114 86.678 49.8864 86.9205C49.7614 87.1591 49.6989 87.4394 49.6989 87.7614V93H47.2784Z" fill="white"/>
<path d="M72.9034 34V33.233L75.7841 30.0795C76.1222 29.7102 76.4006 29.3892 76.6193 29.1165C76.8381 28.8409 77 28.5824 77.1051 28.3409C77.2131 28.0966 77.267 27.8409 77.267 27.5739C77.267 27.267 77.1932 27.0014 77.0455 26.777C76.9006 26.5526 76.7017 26.3793 76.4489 26.2571C76.196 26.1349 75.9119 26.0739 75.5966 26.0739C75.2614 26.0739 74.9688 26.1435 74.7188 26.2827C74.4716 26.419 74.2798 26.6108 74.1435 26.858C74.0099 27.1051 73.9432 27.3949 73.9432 27.7273H72.9375C72.9375 27.2159 73.0554 26.767 73.2912 26.3807C73.527 25.9943 73.848 25.6932 74.2543 25.4773C74.6634 25.2614 75.1222 25.1534 75.6307 25.1534C76.142 25.1534 76.5952 25.2614 76.9901 25.4773C77.3849 25.6932 77.6946 25.9844 77.919 26.3509C78.1435 26.7173 78.2557 27.125 78.2557 27.5739C78.2557 27.8949 78.1974 28.2088 78.081 28.5156C77.9673 28.8196 77.7685 29.1591 77.4844 29.5341C77.2031 29.9062 76.8125 30.3608 76.3125 30.8977L74.3523 32.9943V33.0625H78.4091V34H72.9034ZM83.0156 34.1193C82.3736 34.1193 81.8267 33.9446 81.375 33.5952C80.9233 33.2429 80.5781 32.733 80.3395 32.0653C80.1009 31.3949 79.9815 30.5852 79.9815 29.6364C79.9815 28.6932 80.1009 27.8878 80.3395 27.2202C80.581 26.5497 80.9276 26.0384 81.3793 25.6861C81.8338 25.331 82.3793 25.1534 83.0156 25.1534C83.652 25.1534 84.196 25.331 84.6477 25.6861C85.1023 26.0384 85.4489 26.5497 85.6875 27.2202C85.929 27.8878 86.0497 28.6932 86.0497 29.6364C86.0497 30.5852 85.9304 31.3949 85.6918 32.0653C85.4531 32.733 85.108 33.2429 84.6562 33.5952C84.2045 33.9446 83.6577 34.1193 83.0156 34.1193ZM83.0156 33.1818C83.652 33.1818 84.1463 32.875 84.4986 32.2614C84.8509 31.6477 85.027 30.7727 85.027 29.6364C85.027 28.8807 84.946 28.2372 84.7841 27.706C84.625 27.1747 84.3949 26.7699 84.0938 26.4915C83.7955 26.2131 83.4361 26.0739 83.0156 26.0739C82.3849 26.0739 81.892 26.3849 81.5369 27.0071C81.1818 27.6264 81.0043 28.5028 81.0043 29.6364C81.0043 30.392 81.0838 31.0341 81.2429 31.5625C81.402 32.0909 81.6307 32.4929 81.929 32.7685C82.2301 33.044 82.5923 33.1818 83.0156 33.1818ZM90.5156 34.1193C89.8736 34.1193 89.3267 33.9446 88.875 33.5952C88.4233 33.2429 88.0781 32.733 87.8395 32.0653C87.6009 31.3949 87.4815 30.5852 87.4815 29.6364C87.4815 28.6932 87.6009 27.8878 87.8395 27.2202C88.081 26.5497 88.4276 26.0384 88.8793 25.6861C89.3338 25.331 89.8793 25.1534 90.5156 25.1534C91.152 25.1534 91.696 25.331 92.1477 25.6861C92.6023 26.0384 92.9489 26.5497 93.1875 27.2202C93.429 27.8878 93.5497 28.6932 93.5497 29.6364C93.5497 30.5852 93.4304 31.3949 93.1918 32.0653C92.9531 32.733 92.608 33.2429 92.1562 33.5952C91.7045 33.9446 91.1577 34.1193 90.5156 34.1193ZM90.5156 33.1818C91.152 33.1818 91.6463 32.875 91.9986 32.2614C92.3509 31.6477 92.527 30.7727 92.527 29.6364C92.527 28.8807 92.446 28.2372 92.2841 27.706C92.125 27.1747 91.8949 26.7699 91.5938 26.4915C91.2955 26.2131 90.9361 26.0739 90.5156 26.0739C89.8849 26.0739 89.392 26.3849 89.0369 27.0071C88.6818 27.6264 88.5043 28.5028 88.5043 29.6364C88.5043 30.392 88.5838 31.0341 88.7429 31.5625C88.902 32.0909 89.1307 32.4929 89.429 32.7685C89.7301 33.044 90.0923 33.1818 90.5156 33.1818ZM98.0156 34.1193C97.3736 34.1193 96.8267 33.9446 96.375 33.5952C95.9233 33.2429 95.5781 32.733 95.3395 32.0653C95.1009 31.3949 94.9815 30.5852 94.9815 29.6364C94.9815 28.6932 95.1009 27.8878 95.3395 27.2202C95.581 26.5497 95.9276 26.0384 96.3793 25.6861C96.8338 25.331 97.3793 25.1534 98.0156 25.1534C98.652 25.1534 99.196 25.331 99.6477 25.6861C100.102 26.0384 100.449 26.5497 100.688 27.2202C100.929 27.8878 101.05 28.6932 101.05 29.6364C101.05 30.5852 100.93 31.3949 100.692 32.0653C100.453 32.733 100.108 33.2429 99.6562 33.5952C99.2045 33.9446 98.6577 34.1193 98.0156 34.1193ZM98.0156 33.1818C98.652 33.1818 99.1463 32.875 99.4986 32.2614C99.8509 31.6477 100.027 30.7727 100.027 29.6364C100.027 28.8807 99.946 28.2372 99.7841 27.706C99.625 27.1747 99.3949 26.7699 99.0938 26.4915C98.7955 26.2131 98.4361 26.0739 98.0156 26.0739C97.3849 26.0739 96.892 26.3849 96.5369 27.0071C96.1818 27.6264 96.0043 28.5028 96.0043 29.6364C96.0043 30.392 96.0838 31.0341 96.2429 31.5625C96.402 32.0909 96.6307 32.4929 96.929 32.7685C97.2301 33.044 97.5923 33.1818 98.0156 33.1818ZM108.72 34.1364C108.107 34.1364 107.578 33.9915 107.135 33.7017C106.692 33.4119 106.351 33.0128 106.112 32.5043C105.874 31.9957 105.754 31.4148 105.754 30.7614C105.754 30.0966 105.876 29.5099 106.121 29.0014C106.368 28.4901 106.712 28.0909 107.152 27.804C107.595 27.5142 108.112 27.3693 108.703 27.3693C109.163 27.3693 109.578 27.4545 109.947 27.625C110.317 27.7955 110.619 28.0341 110.855 28.3409C111.091 28.6477 111.237 29.0057 111.294 29.4148H110.288C110.212 29.1165 110.041 28.8523 109.777 28.6222C109.516 28.3892 109.163 28.2727 108.72 28.2727C108.328 28.2727 107.984 28.375 107.689 28.5795C107.396 28.7812 107.168 29.0668 107.003 29.4361C106.841 29.8026 106.76 30.233 106.76 30.7273C106.76 31.233 106.839 31.6733 106.999 32.0483C107.161 32.4233 107.388 32.7145 107.68 32.9219C107.976 33.1293 108.322 33.233 108.72 33.233C108.982 33.233 109.219 33.1875 109.432 33.0966C109.645 33.0057 109.825 32.875 109.973 32.7045C110.121 32.5341 110.226 32.3295 110.288 32.0909H111.294C111.237 32.4773 111.097 32.8253 110.872 33.1349C110.651 33.4418 110.357 33.6861 109.99 33.8679C109.626 34.0469 109.203 34.1364 108.72 34.1364ZM114.69 34.1534C114.276 34.1534 113.899 34.0753 113.561 33.919C113.223 33.7599 112.955 33.5312 112.756 33.233C112.557 32.9318 112.457 32.5682 112.457 32.142C112.457 31.767 112.531 31.4631 112.679 31.2301C112.827 30.9943 113.024 30.8097 113.271 30.6761C113.518 30.5426 113.791 30.4432 114.089 30.3778C114.391 30.3097 114.693 30.2557 114.997 30.2159C115.395 30.1648 115.717 30.1264 115.964 30.1009C116.214 30.0724 116.396 30.0256 116.51 29.9602C116.626 29.8949 116.685 29.7812 116.685 29.6193V29.5852C116.685 29.1648 116.57 28.8381 116.339 28.6051C116.112 28.3722 115.767 28.2557 115.304 28.2557C114.824 28.2557 114.447 28.3608 114.175 28.571C113.902 28.7812 113.71 29.0057 113.599 29.2443L112.645 28.9034C112.815 28.5057 113.043 28.196 113.327 27.9744C113.614 27.75 113.926 27.5937 114.264 27.5057C114.605 27.4148 114.94 27.3693 115.27 27.3693C115.48 27.3693 115.722 27.3949 115.994 27.446C116.27 27.4943 116.536 27.5952 116.791 27.7486C117.05 27.902 117.264 28.1335 117.435 28.4432C117.605 28.7528 117.69 29.1676 117.69 29.6875V34H116.685V33.1136H116.634C116.565 33.2557 116.452 33.4077 116.293 33.5696C116.134 33.7315 115.922 33.8693 115.658 33.983C115.393 34.0966 115.071 34.1534 114.69 34.1534ZM114.844 33.25C115.241 33.25 115.577 33.1719 115.849 33.0156C116.125 32.8594 116.332 32.6577 116.472 32.4105C116.614 32.1634 116.685 31.9034 116.685 31.6307V30.7102C116.642 30.7614 116.548 30.8082 116.403 30.8509C116.261 30.8906 116.097 30.9261 115.909 30.9574C115.724 30.9858 115.544 31.0114 115.368 31.0341C115.195 31.054 115.054 31.071 114.946 31.0852C114.685 31.1193 114.44 31.1747 114.213 31.2514C113.989 31.3253 113.807 31.4375 113.668 31.5881C113.531 31.7358 113.463 31.9375 113.463 32.1932C113.463 32.5426 113.592 32.8068 113.851 32.9858C114.112 33.1619 114.443 33.25 114.844 33.25ZM120.532 25.2727V34H119.526V25.2727H120.532Z" fill="white"/>
<path d="M75.75 93.1193C75.108 93.1193 74.5611 92.9446 74.1094 92.5952C73.6577 92.2429 73.3125 91.733 73.0739 91.0653C72.8352 90.3949 72.7159 89.5852 72.7159 88.6364C72.7159 87.6932 72.8352 86.8878 73.0739 86.2202C73.3153 85.5497 73.6619 85.0384 74.1136 84.6861C74.5682 84.331 75.1136 84.1534 75.75 84.1534C76.3864 84.1534 76.9304 84.331 77.3821 84.6861C77.8366 85.0384 78.1832 85.5497 78.4219 86.2202C78.6634 86.8878 78.7841 87.6932 78.7841 88.6364C78.7841 89.5852 78.6648 90.3949 78.4261 91.0653C78.1875 91.733 77.8423 92.2429 77.3906 92.5952C76.9389 92.9446 76.392 93.1193 75.75 93.1193ZM75.75 92.1818C76.3864 92.1818 76.8807 91.875 77.233 91.2614C77.5852 90.6477 77.7614 89.7727 77.7614 88.6364C77.7614 87.8807 77.6804 87.2372 77.5185 86.706C77.3594 86.1747 77.1293 85.7699 76.8281 85.4915C76.5298 85.2131 76.1705 85.0739 75.75 85.0739C75.1193 85.0739 74.6264 85.3849 74.2713 86.0071C73.9162 86.6264 73.7386 87.5028 73.7386 88.6364C73.7386 89.392 73.8182 90.0341 73.9773 90.5625C74.1364 91.0909 74.3651 91.4929 74.6634 91.7685C74.9645 92.044 75.3267 92.1818 75.75 92.1818ZM84.8011 89.0625V93H83.7955V84.2727H84.8011V87.4773H84.8864C85.0398 87.1392 85.2699 86.8707 85.5767 86.6719C85.8864 86.4702 86.2983 86.3693 86.8125 86.3693C87.2585 86.3693 87.6491 86.4588 87.9844 86.6378C88.3196 86.8139 88.5795 87.0852 88.7642 87.4517C88.9517 87.8153 89.0455 88.2784 89.0455 88.8409V93H88.0398V88.9091C88.0398 88.3892 87.9048 87.9872 87.6349 87.7031C87.3679 87.4162 86.9972 87.2727 86.5227 87.2727C86.1932 87.2727 85.8977 87.3423 85.6364 87.4815C85.3778 87.6207 85.1733 87.8239 85.0227 88.0909C84.875 88.358 84.8011 88.6818 84.8011 89.0625ZM90.8853 93V86.4545H91.8569V87.4432H91.9251C92.0444 87.1193 92.2603 86.8565 92.5728 86.6548C92.8853 86.4531 93.2376 86.3523 93.6296 86.3523C93.7035 86.3523 93.7958 86.3537 93.9066 86.3565C94.0174 86.3594 94.1012 86.3636 94.158 86.3693V87.392C94.1239 87.3835 94.0458 87.3707 93.9237 87.3537C93.8043 87.3338 93.6779 87.3239 93.5444 87.3239C93.2262 87.3239 92.9421 87.3906 92.6921 87.5241C92.445 87.6548 92.2489 87.8366 92.104 88.0696C91.962 88.2997 91.891 88.5625 91.891 88.858V93H90.8853ZM101.435 93.1193C100.935 93.1193 100.485 93.0199 100.085 92.821C99.6839 92.6222 99.3629 92.3494 99.1214 92.0028C98.88 91.6562 98.7479 91.2614 98.7251 90.8182H99.7479C99.7876 91.2131 99.9666 91.5398 100.285 91.7983C100.606 92.054 100.989 92.1818 101.435 92.1818C101.793 92.1818 102.112 92.098 102.39 91.9304C102.671 91.7628 102.891 91.5327 103.05 91.2401C103.212 90.9446 103.293 90.6108 103.293 90.2386C103.293 89.858 103.21 89.5185 103.042 89.2202C102.877 88.919 102.65 88.6818 102.36 88.5085C102.07 88.3352 101.739 88.2472 101.367 88.2443C101.1 88.2415 100.826 88.2827 100.545 88.3679C100.263 88.4503 100.032 88.5568 99.8501 88.6875L98.8615 88.5682L99.3899 84.2727H103.924V85.2102H100.276L99.9695 87.7841H100.021C100.2 87.642 100.424 87.5241 100.694 87.4304C100.964 87.3366 101.245 87.2898 101.538 87.2898C102.072 87.2898 102.548 87.4176 102.965 87.6733C103.386 87.9261 103.715 88.2727 103.954 88.7131C104.195 89.1534 104.316 89.6562 104.316 90.2216C104.316 90.7784 104.191 91.2756 103.941 91.7131C103.694 92.1477 103.353 92.4915 102.918 92.7443C102.484 92.9943 101.989 93.1193 101.435 93.1193ZM108.855 93.1193C108.213 93.1193 107.667 92.9446 107.215 92.5952C106.763 92.2429 106.418 91.733 106.179 91.0653C105.941 90.3949 105.821 89.5852 105.821 88.6364C105.821 87.6932 105.941 86.8878 106.179 86.2202C106.421 85.5497 106.767 85.0384 107.219 84.6861C107.674 84.331 108.219 84.1534 108.855 84.1534C109.492 84.1534 110.036 84.331 110.488 84.6861C110.942 85.0384 111.289 85.5497 111.527 86.2202C111.769 86.8878 111.89 87.6932 111.89 88.6364C111.89 89.5852 111.77 90.3949 111.532 91.0653C111.293 91.733 110.948 92.2429 110.496 92.5952C110.044 92.9446 109.498 93.1193 108.855 93.1193ZM108.855 92.1818C109.492 92.1818 109.986 91.875 110.338 91.2614C110.691 90.6477 110.867 89.7727 110.867 88.6364C110.867 87.8807 110.786 87.2372 110.624 86.706C110.465 86.1747 110.235 85.7699 109.934 85.4915C109.635 85.2131 109.276 85.0739 108.855 85.0739C108.225 85.0739 107.732 85.3849 107.377 86.0071C107.022 86.6264 106.844 87.5028 106.844 88.6364C106.844 89.392 106.924 90.0341 107.083 90.5625C107.242 91.0909 107.471 91.4929 107.769 91.7685C108.07 92.044 108.432 92.1818 108.855 92.1818ZM116.901 93V86.4545H117.873V87.4773H117.958C118.094 87.1278 118.314 86.8565 118.618 86.6634C118.922 86.4673 119.287 86.3693 119.713 86.3693C120.145 86.3693 120.505 86.4673 120.792 86.6634C121.081 86.8565 121.307 87.1278 121.469 87.4773H121.537C121.705 87.1392 121.956 86.8707 122.292 86.6719C122.627 86.4702 123.029 86.3693 123.498 86.3693C124.083 86.3693 124.561 86.5526 124.934 86.919C125.306 87.2827 125.492 87.8494 125.492 88.6193V93H124.486V88.6193C124.486 88.1364 124.354 87.7912 124.09 87.5838C123.826 87.3764 123.515 87.2727 123.157 87.2727C122.696 87.2727 122.34 87.4119 122.087 87.6903C121.834 87.9659 121.708 88.3153 121.708 88.7386V93H120.685V88.517C120.685 88.1449 120.564 87.8452 120.323 87.6179C120.081 87.3878 119.77 87.2727 119.39 87.2727C119.128 87.2727 118.884 87.3423 118.657 87.4815C118.432 87.6207 118.25 87.8139 118.111 88.0611C117.975 88.3054 117.907 88.5881 117.907 88.9091V93H116.901Z" fill="white"/>
</svg>
