<svg width="21" height="20" viewBox="0 0 21 20" fill="none" xmlns="http://www.w3.org/2000/svg">
<path fill-rule="evenodd" clip-rule="evenodd" d="M3.05921 1.47251C3.05308 1.40357 3.03279 1.33647 2.99948 1.27502C2.96617 1.21357 2.9205 1.15898 2.86507 1.11437C2.80965 1.06976 2.74556 1.03601 2.67646 1.01503C2.60735 0.994056 2.5346 0.986271 2.46234 0.992121L1.36193 1.08167C1.21611 1.09346 1.08116 1.16001 0.98674 1.26668C0.89232 1.37335 0.846152 1.51142 0.858384 1.65054L1.04004 3.68849C0.960604 3.74133 0.897136 3.81317 0.856001 3.8968C0.814866 3.98044 0.797511 4.07292 0.805678 4.16498C0.813845 4.25703 0.847246 4.34542 0.90253 4.42126C0.957815 4.49711 1.03304 4.55776 1.12065 4.59711L1.3139 6.76832C1.32002 6.83725 1.34031 6.90436 1.37362 6.96581C1.40693 7.02725 1.4526 7.08184 1.50803 7.12645C1.56345 7.17106 1.62755 7.20482 1.69665 7.22579C1.76575 7.24677 1.8385 7.25455 1.91076 7.2487L3.01117 7.15916C3.15699 7.14736 3.29194 7.08081 3.38636 6.97414C3.48078 6.86747 3.52695 6.72941 3.51472 6.59028L3.31043 4.30108C3.59202 4.25315 3.86809 4.20732 4.14084 4.16413C4.19882 5.03325 4.36722 6.50758 4.67752 7.89606C4.87629 8.78098 5.14794 9.70488 5.52561 10.4318C5.71333 10.7942 5.95738 11.165 6.28038 11.4579C6.56583 11.717 6.95233 11.9461 7.42938 12.0062V14.288C7.36936 14.2675 7.30937 14.247 7.24938 14.2264L7.12625 14.1842C6.57135 13.9946 6.00762 13.8018 5.57695 13.6981C5.36825 13.6475 5.05187 13.5817 4.74157 13.608C4.47669 13.6274 4.22397 13.722 4.01606 13.8798C3.87397 13.9902 3.75965 14.1297 3.68149 14.2878C3.60333 14.446 3.56332 14.6188 3.56441 14.7937C3.56441 15.2272 3.71956 16.3423 3.85152 17.233C3.93288 17.7828 4.01755 18.3322 4.10551 18.8812L4.12318 18.9912L4.12814 19.0202L4.12925 19.0276V19.0302L5.22083 18.869L4.1298 19.0308C4.17212 19.286 4.31129 19.5175 4.52085 19.6812C4.73041 19.8449 4.99574 19.9295 5.26637 19.9187C5.53701 19.908 5.79407 19.8028 5.98866 19.623C6.18326 19.4433 6.30182 19.2015 6.32179 18.9438L6.52608 16.2175C7.1395 16.4271 7.85563 16.6689 8.56292 16.8585C9.26579 17.0471 10.0371 17.2061 10.7422 17.2061C11.4473 17.2061 12.2186 17.0471 12.9215 16.8585C13.6227 16.6704 14.3328 16.4308 14.9423 16.2227L15.1626 18.9496C15.1836 19.2071 15.3029 19.4482 15.498 19.6273C15.6931 19.8063 15.9503 19.9107 16.2208 19.9207C16.4913 19.9308 16.7562 19.8456 16.9652 19.6816C17.1742 19.5175 17.3128 19.2859 17.3546 19.0308L17.3552 19.0276L17.3563 19.0202L17.3612 18.9912L17.3789 18.8806C17.4672 18.3319 17.5519 17.7827 17.6329 17.233C17.7648 16.3423 17.92 15.2272 17.92 14.7942C17.92 14.4834 17.793 14.1316 17.4683 13.8798C17.2605 13.722 17.0077 13.6273 16.7428 13.608C16.4325 13.5817 16.1162 13.6475 15.9069 13.6975C15.4762 13.8018 14.9131 13.9946 14.3582 14.1842L14.235 14.2264L14.055 14.288V12.0088C15.0986 11.8977 15.7308 11.0907 16.0792 10.4486C16.4833 9.70488 16.7473 8.76465 16.9261 7.87499C17.2066 6.48493 17.3171 5.02535 17.353 4.17098C17.6224 4.21312 17.8957 4.25789 18.1734 4.30477L17.9691 6.59028C17.9569 6.72949 18.0032 6.86763 18.0977 6.97432C18.1922 7.081 18.3273 7.14749 18.4732 7.15916L19.5731 7.2487C19.6454 7.25455 19.7181 7.24677 19.7872 7.22579C19.8563 7.20482 19.9204 7.17106 19.9758 7.12645C20.0313 7.08184 20.0769 7.02725 20.1102 6.96581C20.1435 6.90436 20.1638 6.83725 20.17 6.76832L20.3632 4.59711C20.4511 4.55805 20.5267 4.49754 20.5822 4.42171C20.6378 4.34588 20.6714 4.2574 20.6796 4.16522C20.6878 4.07304 20.6704 3.98042 20.6291 3.89671C20.5878 3.813 20.5241 3.74118 20.4444 3.68849L20.626 1.65054C20.6383 1.51142 20.5921 1.37335 20.4977 1.26668C20.4032 1.16001 20.2683 1.09346 20.1225 1.08167L19.0221 0.992121C18.8762 0.980453 18.7315 1.0245 18.6197 1.11457C18.5079 1.20465 18.4381 1.33339 18.4258 1.47251L18.2673 3.25077C17.9223 3.19288 17.5768 3.13757 17.2309 3.08485C17.1484 2.94207 17.0323 2.81951 16.8916 2.72683C16.751 2.63415 16.5898 2.57387 16.4206 2.55074C16.2514 2.52761 16.0789 2.54226 15.9167 2.59353C15.7544 2.64481 15.6069 2.73131 15.4856 2.84624C12.1303 2.44223 9.28953 2.44276 5.99271 2.84097C5.87147 2.72781 5.72453 2.64281 5.5633 2.59258C5.40206 2.54234 5.23087 2.52821 5.06298 2.55129C4.8951 2.57436 4.73505 2.63403 4.59524 2.72564C4.45543 2.81726 4.33962 2.93837 4.25679 3.07958C3.91668 3.1312 3.57049 3.18703 3.21712 3.24708L3.05921 1.47251ZM6.83749 7.45624C6.58056 6.27081 6.41228 5.06945 6.33394 3.86126C9.38781 3.50676 12.0458 3.50676 15.1543 3.86863C15.1334 4.57025 15.0395 6.07777 14.7574 7.47678C14.5917 8.29902 14.3764 9.00484 14.1185 9.47943C13.9429 9.80232 13.8226 9.89292 13.7828 9.91452H7.7844C7.72035 9.85078 7.62152 9.72173 7.50447 9.49629C7.24938 9.00484 7.023 8.28321 6.83749 7.45624ZM13.2268 6.49073C13.2268 7.11938 12.9651 7.72227 12.4991 8.16679C12.0331 8.61131 11.4012 8.86104 10.7422 8.86104C10.0832 8.86104 9.45127 8.61131 8.98531 8.16679C8.51936 7.72227 8.25758 7.11938 8.25758 6.49073C8.25758 5.86208 8.51936 5.25918 8.98531 4.81466C9.45127 4.37014 10.0832 4.12041 10.7422 4.12041C11.4012 4.12041 12.0331 4.37014 12.4991 4.81466C12.9651 5.25918 13.2268 5.86208 13.2268 6.49073Z" fill="#C9BFF2"/>
</svg>
