<svg width="19" height="23" viewBox="0 0 19 23" fill="none" xmlns="http://www.w3.org/2000/svg">
<path d="M8.0047 11.1875C8.56186 12.6037 8.50259 14.0775 6.8311 14.6647C3.39328 15.8967 2.62273 12.6613 2.57531 12.5001L8.0047 11.1875ZM2.04186 10.2549L7.16302 9.02295C6.93779 7.81401 7.28157 6.60507 7.28157 5.17737C7.28157 3.24306 5.70491 -0.544958 3.19175 0.0652693C0.32295 0.756093 -0.0919591 3.85329 0.0147318 5.35007C0.156986 6.84686 1.95888 10.0477 2.04186 10.2549ZM16.4333 20.5482C16.3977 20.7209 15.6153 23.9447 12.1775 22.7243C10.5179 22.1256 10.4467 20.6518 11.0039 19.2356L16.4333 20.5482ZM18.982 13.4097C19.1006 11.9129 18.6975 8.80419 15.8168 8.11337C13.3155 7.48011 11.7389 11.2912 11.7389 13.237C11.7389 14.6532 12.0708 15.8621 11.8693 17.0711L16.9667 18.303C17.0616 18.0958 18.8516 14.895 18.982 13.4097Z" fill="#FECD83"/>
</svg>
